<svg width="64" height="40" viewBox="0 0 64 40" fill="none" xmlns="http://www.w3.org/2000/svg">
<g clip-path="url(#clip0_68_2889)">
<path opacity="0.201" d="M20 40C31.0457 40 40 31.0457 40 20C40 8.9543 31.0457 0 20 0C8.9543 0 0 8.9543 0 20C0 31.0457 8.9543 40 20 40Z" fill="black"/>
<path d="M31.002 22.358C33.919 22.358 36.182 24.951 35.764 27.864C35.6427 28.6974 35.3055 29.4845 34.7859 30.1472C34.2663 30.81 33.5823 31.3253 32.802 31.642C31.9042 32.0056 30.9175 32.0889 29.9714 31.881C29.0254 31.673 28.1645 31.1836 27.502 30.477C26.314 29.217 26.267 27.864 26.239 27.864C25.819 24.94 28.096 22.358 31.002 22.358ZM53.002 22.358C56.459 22.358 58.8 25.925 57.412 29.102C56.9892 30.0703 56.2597 30.8727 55.336 31.3855C54.4122 31.8984 53.3454 32.0932 52.3 31.94C51.2753 31.7864 50.3272 31.3069 49.596 30.5727C48.8648 29.8385 48.3894 28.8884 48.24 27.863C47.82 24.948 50.086 22.357 53.002 22.357V22.358ZM37.962 16.275V17.737C37.9618 17.9118 37.9971 18.0847 38.0658 18.2454C38.1345 18.4061 38.2351 18.5512 38.3615 18.6718C38.4879 18.7924 38.6375 18.8861 38.8013 18.9472C38.965 19.0082 39.1395 19.0354 39.314 19.027C40.007 18.994 40.541 18.396 40.541 17.701V16.275H48.841L61.897 16.991C62.1617 17.0057 62.4155 17.1016 62.6238 17.2657C62.8321 17.4298 62.9847 17.6541 63.061 17.908C63.331 18.803 63.507 19.385 63.624 19.778H62.577C61.883 19.778 61.286 20.312 61.253 21.006C61.2446 21.1804 61.2717 21.3547 61.3326 21.5183C61.3936 21.6819 61.4871 21.8314 61.6075 21.9578C61.7279 22.0842 61.8728 22.1848 62.0332 22.2536C62.1937 22.3224 62.3664 22.3579 62.541 22.358H63.986C63.822 24.583 62.416 26.551 60.386 27.408C60.516 23.196 57.131 19.778 53.002 19.778C48.685 19.778 45.24 23.496 45.644 27.864H38.359C38.789 23.209 34.856 19.333 30.228 19.818V16.275H37.962ZM27.65 16.275V20.583C26.3313 21.2557 25.2446 22.3084 24.5305 23.6051C23.8164 24.9018 23.5076 26.3829 23.644 27.857C22.659 27.7979 21.7337 27.3652 21.0569 26.6471C20.3801 25.929 20.0028 24.9798 20.002 23.993V22.358H21.462C21.8041 22.358 22.1323 22.2221 22.3742 21.9802C22.6161 21.7382 22.752 21.4101 22.752 21.068C22.752 20.7259 22.6161 20.3978 22.3742 20.1558C22.1323 19.9139 21.8041 19.778 21.462 19.778H20.001V16.565L20.004 16.275H27.65ZM42.636 8.079C45.286 8.079 47.636 9.671 48.62 12.134L49.25 13.713C49.2283 13.7118 49.2067 13.7105 49.185 13.709L49.159 13.707L49.125 13.705L49.103 13.703C49.0284 13.699 48.9537 13.697 48.879 13.697L48.781 13.696H48.742L48.606 13.695H48.554L48.228 13.694H40.211L38.528 8.08L42.636 8.079ZM29.004 8.079L27.882 13.695H20.738L22.208 8.985C22.2899 8.72251 22.4534 8.49303 22.6749 8.33005C22.8963 8.16707 23.1641 8.07911 23.439 8.079H29.004ZM35.836 8.079L37.519 13.694H30.512L31.633 8.079H35.836Z" fill="#26B5C0"/>
</g>
<defs>
<clipPath id="clip0_68_2889">
<rect width="64" height="40" fill="white"/>
</clipPath>
</defs>
</svg>
