<svg width="64" height="40" viewBox="0 0 64 40" fill="none" xmlns="http://www.w3.org/2000/svg">
<g clip-path="url(#clip0_68_2890)">
<path opacity="0.201" d="M20 40C31.0457 40 40 31.0457 40 20C40 8.9543 31.0457 0 20 0C8.9543 0 0 8.9543 0 20C0 31.0457 8.9543 40 20 40Z" fill="black"/>
<path d="M30.98 22.835C32.921 22.835 34.496 24.439 34.496 26.418C34.496 28.396 32.921 30 30.979 30C29.037 30 27.463 28.396 27.463 26.418C27.463 24.439 29.037 22.835 30.979 22.835H30.98ZM52.936 22.835C54.878 22.835 56.453 24.439 56.453 26.418C56.453 28.396 54.878 30 52.936 30C50.994 30 49.42 28.396 49.42 26.418C49.42 24.439 50.994 22.835 52.936 22.835ZM43.793 12.385C43.9113 12.2636 44.0527 12.1671 44.2089 12.1012C44.3651 12.0353 44.533 12.0014 44.7025 12.0014C44.872 12.0014 45.0398 12.0353 45.196 12.1012C45.3522 12.1671 45.4937 12.2636 45.612 12.385L49.327 16.169C53.771 16.054 59.027 17.311 63.291 19.922C63.678 20.159 63.915 20.586 63.915 21.046C63.915 24.052 61.789 26.56 58.989 27.096C59.386 23.398 56.531 20.214 52.936 20.214C49.29 20.214 46.432 23.478 46.897 27.204H37.228C37.988 25.66 38.221 25.178 38.565 24.493L38.647 24.331C39.068 23.496 39.703 22.261 41.53 18.681C43.21 18.658 45 18.273 46.777 17.278L43.793 14.238C43.5512 13.99 43.4159 13.6574 43.4159 13.311C43.4159 12.9647 43.5512 12.632 43.793 12.384V12.385ZM36.113 13.449C36.796 13.249 37.508 13.651 37.705 14.347L38.454 16.999C38.6904 17.8369 38.6022 18.7332 38.207 19.509L36.474 22.904L36.258 23.328C35.188 21.438 33.198 20.214 30.979 20.214C27.384 20.214 24.529 23.398 24.927 27.099C23.095 26.752 21.513 25.562 20.649 23.823C20.5408 23.6049 20.4944 23.3613 20.5151 23.1186C20.5357 22.876 20.6225 22.6437 20.766 22.447L21.721 21.144L20.396 19.849C19.645 19.114 20.02 17.825 21.036 17.618L27.65 16.272L27.78 16.246C27.872 16.227 27.925 16.216 27.937 16.215C28.251 16.069 29.007 15.624 29.007 14.709C29.007 13.975 29.599 13.382 30.323 13.399C31.035 13.415 31.591 14.061 31.579 14.787C31.573 15.342 31.4546 15.89 31.231 16.398C32.834 16.6114 34.4096 16.9956 35.931 17.544L35.231 15.071C35.1352 14.739 35.174 14.3826 35.3391 14.079C35.5042 13.7754 35.7822 13.5491 36.113 13.449Z" fill="#19B89D"/>
</g>
<defs>
<clipPath id="clip0_68_2890">
<rect width="64" height="40" fill="white"/>
</clipPath>
</defs>
</svg>
